<svg width="54" height="54" viewBox="0 0 54 54" fill="none" xmlns="http://www.w3.org/2000/svg">
<circle cx="27" cy="27" r="27" fill="white"/>
<path fill-rule="evenodd" clip-rule="evenodd" d="M38.2504 27.5002C38.2504 27.8566 38.1089 28.1984 37.8569 28.4504C37.6049 28.7024 37.2631 28.844 36.9067 28.844H21.338L27.1081 34.6114C27.233 34.7363 27.3321 34.8846 27.3997 35.0479C27.4673 35.2111 27.5021 35.386 27.5021 35.5627C27.5021 35.7394 27.4673 35.9144 27.3997 36.0776C27.3321 36.2409 27.233 36.3892 27.1081 36.5141C26.9831 36.639 26.8348 36.7381 26.6716 36.8058C26.5083 36.8734 26.3334 36.9082 26.1567 36.9082C25.98 36.9082 25.8051 36.8734 25.6418 36.8058C25.4786 36.7381 25.3303 36.639 25.2053 36.5141L17.1428 28.4516C17.0177 28.3268 16.9184 28.1785 16.8507 28.0152C16.7829 27.852 16.748 27.677 16.748 27.5002C16.748 27.3235 16.7829 27.1485 16.8507 26.9852C16.9184 26.822 17.0177 26.6737 17.1428 26.5489L25.2053 18.4864C25.4576 18.234 25.7999 18.0923 26.1567 18.0923C26.5135 18.0923 26.8558 18.234 27.1081 18.4864C27.3604 18.7387 27.5021 19.0809 27.5021 19.4377C27.5021 19.7946 27.3604 20.1368 27.1081 20.3891L21.338 26.1565H36.9067C37.2631 26.1565 37.6049 26.2981 37.8569 26.5501C38.1089 26.8021 38.2504 27.1438 38.2504 27.5002Z" fill="#0C55EC"/>
</svg>
