<svg width="55" height="53" viewBox="0 0 55 53" fill="none" xmlns="http://www.w3.org/2000/svg">
<rect width="55" height="53" rx="15" fill="white"/>
<path d="M28.75 33.1328V34.5H31.25C31.5885 34.5 31.8815 34.6204 32.1289 34.8613C32.3763 35.1022 32.5 35.3952 32.5 35.7402C32.5 36.0853 32.3796 36.3815 32.1387 36.6289C31.8978 36.8763 31.6016 37 31.25 37H23.75C23.3984 37 23.1022 36.8763 22.8613 36.6289C22.6204 36.3815 22.5 36.0853 22.5 35.7402C22.5 35.3952 22.6204 35.1022 22.8613 34.8613C23.1022 34.6204 23.3984 34.5 23.75 34.5H26.25V33.1328C24.4661 32.8333 22.9785 31.9902 21.7871 30.6035C20.5957 29.2168 20 27.599 20 25.75C20 25.4115 20.1204 25.1185 20.3613 24.8711C20.6022 24.6237 20.8984 24.5 21.25 24.5C21.6016 24.5 21.8978 24.6237 22.1387 24.8711C22.3796 25.1185 22.5 25.4115 22.5 25.75C22.5 27.1302 22.9883 28.3086 23.9648 29.2852C24.9414 30.2617 26.1198 30.75 27.5 30.75C28.8802 30.75 30.0586 30.2617 31.0352 29.2852C32.0117 28.3086 32.5 27.1302 32.5 25.75C32.5 25.4115 32.6237 25.1185 32.8711 24.8711C33.1185 24.6237 33.4147 24.5 33.7598 24.5C34.1048 24.5 34.3978 24.6237 34.6387 24.8711C34.8796 25.1185 35 25.4115 35 25.75C35 27.599 34.4043 29.2168 33.2129 30.6035C32.0215 31.9902 30.5339 32.8333 28.75 33.1328ZM27.5 29.5C26.4583 29.5 25.5729 29.1354 24.8438 28.4062C24.1146 27.6771 23.75 26.7917 23.75 25.75V20.75C23.75 19.7083 24.1146 18.8229 24.8438 18.0938C25.5729 17.3646 26.4583 17 27.5 17C28.5417 17 29.4271 17.3646 30.1562 18.0938C30.8854 18.8229 31.25 19.7083 31.25 20.75V25.75C31.25 26.7917 30.8854 27.6771 30.1562 28.4062C29.4271 29.1354 28.5417 29.5 27.5 29.5Z" fill="#0E3C6E"/>
</svg>
